<svg xmlns="http://www.w3.org/2000/svg" viewBox="0 0 257 257"><defs><linearGradient id="a" x1="-.8" x2="290" y1="32.7" y2="172" gradientUnits="userSpaceOnUse"><stop offset=".1" stop-color="#41D1FF"/><stop offset="1" stop-color="#BD34FE"/></linearGradient><linearGradient id="b" x1="194" x2="236" y1="8.8" y2="189" gradientUnits="userSpaceOnUse"><stop offset="0" stop-color="#FFEA83"/><stop offset=".1" stop-color="#FFDD35"/><stop offset="1" stop-color="#FFA800"/></linearGradient></defs><path fill="url(#a)" d="M255 41 134 255c-2 4-9 4-11 0L1 41a6 6 0 0 1 6-9l121 22a7 7 0 0 0 2 0l119-22c5-1 9 4 6 9Z"/><path fill="url(#b)" d="M185 0c-3 0-5 2-6 5l-9 60c0 3 2 5 4 5l34 7c2 1 4 3 3 6l-10 51c-1 3 2 5 5 5l18-6c2 0 4 1 4 4l-13 71c-1 4 4 6 6 3l1-2 81-163c2-3-1-6-4-5l-34 7c-3 0-5-2-5-5l3-58c0-3-2-5-5-5h-73Z" transform="translate(-44)"/></svg>